<mxfile host="Electron" modified="2023-11-19T19:43:07.419Z" agent="Mozilla/5.0 (Windows NT 10.0; Win64; x64) AppleWebKit/537.36 (KHTML, like Gecko) draw.io/21.6.8 Chrome/114.0.5735.289 Electron/25.5.0 Safari/537.36" etag="HF1UuuKBb9K-p4IhzhM6" version="21.6.8" type="device">
  <diagram name="PÃ¡gina-1" id="qPOuwtLpPTV7phYCU9u8">
    <mxGraphModel dx="1363" dy="853" grid="1" gridSize="10" guides="1" tooltips="1" connect="1" arrows="1" fold="1" page="1" pageScale="1" pageWidth="827" pageHeight="1169" math="0" shadow="0">
      <root>
        <mxCell id="0" />
        <mxCell id="1" parent="0" />
        <mxCell id="5A5uHgSnuDu3pbQi67nK-19" value="&lt;font style=&quot;font-size: 14px;&quot;&gt;1. identificar Sistema&lt;br&gt;Operacional&lt;/font&gt;" style="shape=ellipse;html=1;dashed=0;whiteSpace=wrap;perimeter=ellipsePerimeter;verticalAlign=top;" vertex="1" parent="1">
          <mxGeometry x="119" y="150" width="590" height="270" as="geometry" />
        </mxCell>
      </root>
    </mxGraphModel>
  </diagram>
</mxfile>
